<?xml version="1.0" standalone="no"?>
<!DOCTYPE svg PUBLIC "-//W3C//DTD SVG 20010904//EN"
 "http://www.w3.org/TR/2001/REC-SVG-20010904/DTD/svg10.dtd">
<svg version="1.0" xmlns="http://www.w3.org/2000/svg"
 width="1024.000000pt" height="1024.000000pt" viewBox="0 0 1024.000000 1024.000000"
 preserveAspectRatio="xMidYMid meet">

<g transform="translate(0.000000,1024.000000) scale(0.100000,-0.100000)"
fill="#000000" stroke="none">
<path d="M29 10218 c-1 -7 -3 -28 -5 -46 -3 -24 0 -32 9 -29 6 2 10 11 8 18
-2 8 -3 26 -3 42 1 27 -7 39 -9 15z"/>
<path d="M66 10105 c4 -8 8 -15 10 -15 2 0 4 7 4 15 0 8 -4 15 -10 15 -5 0 -7
-7 -4 -15z"/>
<path d="M487 10109 c7 -7 15 -10 18 -7 3 3 -2 9 -12 12 -14 6 -15 5 -6 -5z"/>
<path d="M130 9946 c0 -2 7 -9 15 -16 9 -7 15 -8 15 -2 0 5 -7 12 -15 16 -8 3
-15 4 -15 2z"/>
<path d="M98 9863 c7 -3 16 -2 19 1 4 3 -2 6 -13 5 -11 0 -14 -3 -6 -6z"/>
<path d="M170 9730 c0 -5 5 -10 11 -10 5 0 7 5 4 10 -3 6 -8 10 -11 10 -2 0
-4 -4 -4 -10z"/>
<path d="M995 9650 c3 -5 8 -10 11 -10 2 0 4 5 4 10 0 6 -5 10 -11 10 -5 0 -7
-4 -4 -10z"/>
<path d="M15 9160 c-3 -5 -1 -10 4 -10 6 0 11 5 11 10 0 6 -2 10 -4 10 -3 0
-8 -4 -11 -10z"/>
<path d="M110 8620 c0 -5 5 -10 10 -10 6 0 10 5 10 10 0 6 -4 10 -10 10 -5 0
-10 -4 -10 -10z"/>
<path d="M4960 8604 c-25 -3 -97 -14 -160 -25 -572 -99 -1118 -389 -1497 -793
-89 -96 -258 -322 -342 -459 -166 -271 -294 -643 -336 -977 -19 -149 -23 -245
-10 -244 70 10 183 17 235 15 68 -2 497 23 658 39 194 18 592 74 580 81 -7 3
-60 14 -118 24 -136 22 -347 76 -434 111 -71 28 -126 67 -126 88 0 20 43 51
96 72 45 17 79 19 415 18 202 -1 407 -4 456 -8 l89 -6 0 157 c1 191 20 318 70
446 41 108 61 140 151 243 84 97 183 163 290 194 l79 23 11 152 c13 169 25
211 74 246 69 49 140 22 180 -67 19 -43 39 -180 39 -276 l0 -57 57 -16 c214
-62 388 -247 472 -500 38 -116 54 -252 49 -415 l-4 -131 266 7 c146 3 321 9
388 13 148 7 309 -2 348 -20 16 -8 34 -25 41 -39 6 -13 20 -27 29 -30 15 -6
13 -10 -12 -34 -66 -62 -150 -91 -514 -173 l-125 -28 195 -27 c107 -15 245
-32 305 -37 125 -12 614 -41 691 -41 l52 0 -8 38 c-5 20 -11 73 -15 117 -14
172 -117 524 -213 730 -118 254 -259 459 -448 651 -312 316 -643 518 -1027
629 -449 128 -815 137 -1252 29 -344 -85 -735 -285 -976 -500 -150 -134 -173
-157 -262 -264 -150 -180 -295 -410 -388 -611 -77 -171 -156 -456 -174 -632
-6 -58 -9 -66 -21 -56 -12 10 -12 14 -2 22 9 6 8 7 -5 3 -10 -3 -23 -6 -28 -6
-4 0 -13 -15 -18 -32 -14 -46 -5 41 20 200 104 658 578 1337 1169 1679 285
164 588 275 906 330 145 25 547 25 699 -1 309 -51 535 -124 775 -249 160 -83
168 -88 325 -206 155 -117 360 -315 478 -463 299 -373 492 -873 521 -1353 l3
-50 68 -8 c37 -4 70 -5 73 -2 10 9 -28 315 -53 429 -76 351 -194 622 -406 936
-151 225 -320 403 -564 595 -310 243 -736 428 -1159 501 -89 16 -547 28 -656
18z m338 -341 c-38 -2 -98 -2 -135 0 -38 2 -7 3 67 3 74 0 105 -1 68 -3z m232
-18 c69 -15 71 -15 -95 5 -56 7 -57 7 -15 8 25 1 74 -5 110 -13z m197 -41
c132 -30 291 -80 308 -97 7 -7 3 -8 -10 -3 -67 24 -218 70 -297 90 -105 27
-105 34 -1 10z m405 -136 c70 -30 120 -60 68 -40 -47 19 -155 71 -148 71 4 1
40 -13 80 -31z m143 -68 c3 -6 -1 -7 -9 -4 -18 7 -21 14 -7 14 6 0 13 -4 16
-10z m-1720 -266 c13 -38 22 -44 68 -44 45 0 46 -7 7 -40 -31 -25 -31 -25 -16
-67 8 -23 12 -44 9 -46 -3 -3 -23 7 -45 23 l-40 30 -28 -20 c-25 -18 -60 -27
-60 -16 0 2 7 20 15 39 8 20 15 39 15 41 0 3 -18 15 -40 26 -55 28 -51 43 10
38 47 -3 51 -1 56 22 10 45 14 52 27 48 6 -3 16 -18 22 -34z m1344 -2 c13 -27
20 -31 60 -34 45 -3 45 -3 26 -20 -11 -10 -28 -23 -38 -30 -17 -12 -17 -16 -2
-57 8 -24 15 -45 15 -47 0 -11 -26 -1 -52 21 l-29 25 -39 -26 c-52 -34 -63
-28 -40 21 l19 40 -34 30 c-19 17 -35 33 -35 38 0 4 20 7 44 7 42 0 45 2 56
36 14 41 29 40 49 -4z m-1710 -398 c-15 -18 -22 -13 -13 10 3 9 10 13 16 10 5
-3 4 -12 -3 -20z m2345 -285 c-18 -20 -64 -26 -64 -9 0 13 61 40 73 33 5 -3 1
-14 -9 -24z m-2616 9 c18 -18 15 -24 -10 -24 -22 0 -38 12 -38 29 0 11 35 8
48 -5z m12 -265 c0 -5 -8 -18 -18 -30 l-17 -23 -33 20 c-18 11 -30 25 -27 30
7 12 95 14 95 3z m2650 -10 c0 -14 -34 -43 -50 -43 -10 0 -25 11 -34 25 l-16
25 50 0 c27 0 50 -3 50 -7z"/>
<path d="M2614 8111 c-38 -23 -58 -75 -49 -125 9 -46 35 -67 89 -73 40 -5 48
-2 76 25 23 24 30 39 30 71 0 53 -18 89 -51 107 -37 19 -58 18 -95 -5z m79
-72 c25 -40 -24 -97 -58 -69 -18 15 -20 61 -3 78 16 16 48 11 61 -9z"/>
<path d="M7715 8098 c-31 -27 -48 -90 -34 -127 18 -47 39 -61 89 -61 38 0 51
5 72 28 48 50 48 109 1 156 -34 34 -91 35 -128 4z m83 -60 c35 -35 -15 -99
-53 -68 -30 25 -12 80 25 80 9 0 21 -5 28 -12z"/>
<path d="M1500 8080 c0 -5 5 -10 11 -10 5 0 7 5 4 10 -3 6 -8 10 -11 10 -2 0
-4 -4 -4 -10z"/>
<path d="M2927 8042 c-29 -30 -36 -79 -15 -100 7 -7 31 -12 55 -12 38 0 43 3
49 28 4 15 12 30 18 34 10 7 -55 78 -72 78 -4 0 -20 -13 -35 -28z"/>
<path d="M7422 8040 c-24 -22 -36 -58 -30 -87 3 -14 13 -18 46 -17 46 1 56 7
66 40 5 15 -1 31 -20 53 -31 37 -34 37 -62 11z"/>
<path d="M5194 7879 c-15 -30 -43 -254 -33 -263 2 -2 26 -7 52 -10 l49 -7 -7
103 c-7 110 -22 195 -36 203 -4 3 -16 -9 -25 -26z"/>
<path d="M5075 7485 c-131 -29 -202 -70 -294 -172 -108 -120 -164 -274 -184
-506 -9 -117 -9 -159 6 -285 33 -289 33 -278 -2 -296 -33 -17 -150 -46 -281
-70 -47 -8 -128 -24 -181 -35 -139 -30 -677 -89 -912 -101 -111 -5 -416 -19
-677 -30 -261 -10 -556 -26 -655 -34 -176 -14 -263 -20 -765 -52 -135 -8 -278
-20 -318 -25 -84 -12 -97 -6 -106 46 -22 118 -134 405 -158 405 -25 0 33 -381
73 -482 18 -45 95 -75 249 -98 155 -22 668 -85 780 -96 68 -6 79 -10 120 -46
27 -24 51 -37 62 -35 10 3 21 1 24 -4 3 -5 12 -9 20 -9 20 0 18 36 -4 57 -28
27 -54 74 -47 81 8 8 45 -35 45 -53 0 -7 6 -18 13 -24 8 -6 126 -21 263 -33
l249 -22 31 -33 c41 -44 74 -45 74 -2 0 28 2 30 28 25 15 -3 90 -15 166 -26
76 -10 140 -21 141 -22 1 -2 7 -42 13 -90 16 -128 60 -225 138 -308 75 -79
143 -114 258 -132 67 -10 83 -9 134 6 177 56 296 174 346 348 9 31 16 77 16
102 0 30 5 48 14 52 7 3 100 -6 206 -21 106 -14 196 -25 200 -25 4 0 10 -48
13 -107 4 -60 10 -147 13 -194 4 -48 3 -100 -1 -115 -7 -25 -10 -18 -19 46
l-11 75 -42 3 c-81 6 -83 2 -83 -172 0 -178 1 -179 82 -174 l53 3 3 68 3 67
47 0 c88 0 92 -4 92 -76 l0 -64 64 0 c63 0 64 0 70 31 3 17 6 89 6 160 0 103
-3 131 -16 143 -18 19 -94 22 -112 4 -7 -7 -12 -39 -12 -75 0 -46 -4 -63 -14
-63 -14 0 -26 78 -26 165 0 40 4 46 108 147 59 57 115 107 123 110 8 3 46 0
84 -8 39 -7 87 -13 107 -14 34 0 42 -6 87 -62 118 -149 251 -218 423 -219 163
0 253 41 383 176 l90 94 113 16 113 17 55 -48 c31 -26 82 -78 115 -117 l60
-69 -7 -102 c-3 -55 -9 -105 -12 -110 -10 -17 -21 27 -21 86 -1 31 -4 63 -7
72 -7 18 -58 21 -98 6 l-26 -10 0 -154 c0 -178 1 -179 82 -174 l53 3 3 67 3
67 67 -4 67 -4 3 -63 c2 -34 8 -66 15 -70 17 -11 89 -10 107 2 12 7 16 40 19
166 3 143 2 159 -15 171 -22 16 -100 17 -110 1 -4 -6 -9 -44 -12 -84 -2 -41
-9 -71 -13 -68 -10 6 -10 297 0 389 6 60 6 60 41 63 19 2 80 11 135 22 55 10
136 22 180 25 l80 7 -3 -43 c-7 -89 37 -221 101 -303 93 -117 279 -194 405
-167 223 48 353 201 394 468 l11 71 101 12 c56 6 125 16 155 21 75 13 81 12
81 -11 0 -26 25 -36 58 -24 21 7 28 20 42 77 10 39 26 78 40 92 27 29 45 33
37 8 -3 -10 -10 -33 -15 -50 -9 -27 -7 -36 5 -49 14 -14 33 -15 127 -9 61 4
154 13 206 21 92 15 94 15 110 -5 11 -15 19 -18 30 -11 8 5 30 10 47 10 27 0
34 4 39 28 11 53 13 55 29 42 20 -17 166 -7 445 30 118 16 283 36 365 45 222
25 284 44 320 99 22 33 65 294 65 393 0 128 -19 101 -97 -138 l-68 -209 -75 0
c-41 1 -136 5 -210 10 -74 6 -209 14 -300 20 -91 5 -230 14 -310 20 -501 36
-654 45 -1075 60 -457 16 -905 49 -1220 90 -150 20 -592 99 -672 121 l-43 12
0 106 c1 58 5 138 10 176 5 39 10 138 10 220 1 159 -17 258 -70 397 -30 79
-107 195 -164 245 -122 107 -329 156 -501 118z m115 -167 c0 -24 -4 -48 -8
-55 -4 -7 -41 -19 -82 -28 -109 -23 -159 -39 -228 -74 -34 -17 -66 -31 -73
-31 -11 0 52 124 76 149 17 17 237 80 283 80 31 1 32 0 32 -41z m168 12 c63
-16 126 -39 141 -50 26 -18 111 -137 111 -154 0 -5 -12 -1 -26 8 -14 10 -64
32 -112 51 -76 28 -114 39 -229 61 -21 4 -23 10 -23 59 0 37 4 55 13 55 6 0
63 -14 125 -30z m-52 -261 c44 -23 94 -73 94 -96 0 -18 -45 -23 -104 -12 -31
5 -61 7 -68 3 -7 -4 -8 -3 -4 4 10 17 -28 15 -111 -3 -37 -9 -78 -18 -91 -20
-12 -3 -32 -15 -43 -26 l-21 -21 7 24 c21 70 68 125 130 155 62 30 140 27 211
-8z m-491 -269 c3 -5 1 -10 -4 -10 -6 0 -11 5 -11 10 0 6 2 10 4 10 3 0 8 -4
11 -10z m131 -323 c51 -52 45 -54 -19 -4 -41 32 -97 120 -97 152 0 12 13 -3
34 -39 19 -33 56 -82 82 -109z m623 136 c-19 -51 -68 -128 -96 -153 -18 -17
-22 -18 -11 -4 10 11 36 57 58 102 22 45 44 82 50 82 6 0 6 -10 -1 -27z m-269
-438 l0 -55 -93 0 c-52 0 -96 2 -99 5 -2 3 -2 24 1 47 l6 43 75 6 c41 3 83 6
93 7 14 2 17 -7 17 -53z m-541 -83 c16 -32 48 -83 71 -113 l41 -54 -43 46
c-44 46 -121 173 -133 219 -6 21 -4 20 14 -8 11 -17 34 -58 50 -90z m912 20
c-12 -44 -77 -146 -112 -177 -20 -18 -20 -16 5 25 14 25 45 80 68 122 23 43
43 76 45 74 3 -2 -1 -22 -6 -44z m-1131 -41 c-26 -50 -97 -67 -372 -87 -117
-8 -264 -22 -327 -31 -64 -9 -141 -18 -171 -21 -46 -4 -51 -6 -30 -13 40 -13
-168 -3 -223 11 -26 7 -46 14 -44 16 2 2 64 9 138 14 74 6 184 17 244 25 61 7
137 16 170 20 33 3 123 17 200 31 255 46 420 70 423 63 2 -5 -2 -17 -8 -28z
m1433 18 c40 -5 138 -23 220 -40 154 -31 504 -74 692 -85 137 -9 172 -19 95
-29 -117 -14 -269 -6 -615 35 -88 10 -200 22 -250 25 -114 8 -206 24 -223 38
-7 6 -20 23 -28 39 -14 27 -14 28 11 28 15 0 59 -5 98 -11z m-1433 -63 c0 -8
-9 -14 -19 -13 -15 1 -17 4 -9 14 14 17 28 16 28 -1z m698 -82 c2 -68 0 -85
-17 -105 -10 -13 -23 -20 -28 -16 -4 5 -10 49 -12 99 -3 93 3 112 39 105 12
-2 16 -21 18 -83z m2156 -24 c31 -15 36 -21 22 -26 -29 -11 -212 28 -202 44 8
14 142 1 180 -18z m-2712 -27 c5 -6 18 -47 28 -90 23 -98 82 -237 121 -285 43
-55 8 -35 -40 22 -23 27 -44 64 -47 82 -6 35 -12 52 -37 108 l-16 35 -1 -30
c-2 -29 -3 -28 -15 11 -13 40 -20 124 -15 174 2 21 3 22 7 5 3 -11 9 -25 15
-32z m1055 -57 c-9 -119 -58 -222 -151 -320 -26 -28 -41 -40 -32 -26 35 52 85
169 122 282 21 64 41 115 44 113 4 -2 5 10 3 28 -4 28 -3 30 8 13 8 -12 10
-44 6 -90z m-2784 87 c-7 -2 -21 -2 -30 0 -10 3 -4 5 12 5 17 0 24 -2 18 -5z
m4942 -13 l100 -7 -85 0 c-47 -1 -128 3 -180 7 l-95 7 80 0 c44 0 125 -3 180
-7z m243 -17 c-27 -2 -69 -2 -95 0 -27 2 -5 3 47 3 52 0 74 -1 48 -3z m-185
-20 c-7 -2 -21 -2 -30 0 -10 3 -4 5 12 5 17 0 24 -2 18 -5z m-4597 -34 c189
-35 309 -192 291 -383 -13 -141 -83 -245 -209 -312 -68 -36 -79 -39 -153 -39
-93 1 -145 21 -220 87 -50 44 -104 147 -125 236 -33 143 51 314 187 382 81 40
132 47 229 29z m1972 5 c21 -6 22 -11 22 -118 0 -152 -2 -158 -54 -154 l-41 3
-7 125 c-5 69 -6 131 -3 138 5 13 45 16 83 6z m1848 -5 c165 -30 284 -170 284
-332 0 -74 -22 -172 -50 -228 -73 -142 -264 -215 -414 -159 -82 31 -147 95
-194 189 -36 73 -37 78 -37 186 0 106 1 113 35 180 28 56 46 77 91 108 85 59
173 77 285 56z m-2026 -103 c0 -57 -3 -118 -6 -135 -6 -29 -9 -31 -49 -31
l-43 0 -4 128 c-3 70 -3 130 -1 135 2 4 26 7 54 7 l49 0 0 -104z m-2698 -55
c11 -10 14 -86 3 -89 -11 -4 -15 2 -44 65 l-19 43 26 -6 c15 -4 30 -9 34 -13z
m2252 3 c3 -8 2 -12 -4 -9 -6 3 -10 10 -10 16 0 14 7 11 14 -7z m-341 -256
c27 -3 27 -4 -38 -68 l-65 -64 0 76 0 76 38 -8 c20 -5 50 -10 65 -12z m1774
-68 l3 -75 -60 65 c-32 36 -59 68 -60 72 0 6 67 16 100 14 12 -1 16 -18 17
-76z"/>
<path d="M3236 5759 c-21 -5 -69 -30 -107 -54 -90 -61 -114 -107 -114 -220 1
-66 6 -91 29 -143 65 -142 214 -203 353 -142 145 62 224 267 151 391 -70 119
-207 192 -312 168z m111 -255 c20 -20 24 -31 19 -57 -11 -57 -56 -82 -111 -61
-20 8 -45 56 -45 88 0 56 91 76 137 30z"/>
<path d="M6995 5733 c-67 -27 -102 -60 -136 -128 -29 -59 -31 -71 -27 -137 14
-208 175 -333 361 -279 65 19 138 86 167 153 31 72 38 174 16 233 -22 56 -93
130 -149 155 -53 25 -174 26 -232 3z m173 -229 c29 -33 28 -69 -3 -99 -49 -50
-135 -13 -135 57 0 44 43 82 83 74 18 -3 42 -17 55 -32z"/>
<path d="M9530 7431 c0 -6 5 -13 10 -16 6 -3 10 1 10 9 0 9 -4 16 -10 16 -5 0
-10 -4 -10 -9z"/>
<path d="M450 7324 c0 -8 5 -12 10 -9 6 3 10 10 10 16 0 5 -4 9 -10 9 -5 0
-10 -7 -10 -16z"/>
<path d="M1455 6830 c-141 -5 -150 -6 -153 -25 -6 -51 -28 -49 636 -51 l620
-1 6 21 c10 38 6 45 -28 51 -42 8 -875 12 -1081 5z"/>
<path d="M7848 6823 c-25 -4 -27 -7 -21 -36 3 -18 8 -34 10 -37 10 -11 1171
-2 1192 10 29 15 28 56 -1 64 -25 6 -1136 6 -1180 -1z"/>
<path d="M1216 6622 c-35 -8 -41 -21 -22 -47 13 -18 34 -20 323 -28 169 -4
468 -6 663 -5 l355 3 3 38 3 37 -319 0 c-175 0 -467 2 -648 5 -181 2 -342 1
-358 -3z"/>
<path d="M7855 6588 c4 -18 9 -36 12 -40 2 -5 292 -8 644 -8 626 0 639 0 659
20 24 24 26 46 4 54 -9 3 -310 6 -671 6 l-655 0 7 -32z"/>
<path d="M1011 6574 c0 -11 3 -14 6 -6 3 7 2 16 -1 19 -3 4 -6 -2 -5 -13z"/>
<path d="M6595 6475 c-66 -7 -205 -16 -310 -20 -133 -5 -196 -12 -210 -21 -12
-8 -51 -15 -87 -16 l-66 -3 -7 -44 c-9 -58 3 -67 103 -76 68 -5 99 -1 262 35
199 44 461 95 550 106 30 4 71 13 90 21 31 14 33 16 15 23 -29 12 -200 9 -340
-5z"/>
<path d="M3584 6454 c68 -30 101 -37 416 -100 270 -53 465 -70 489 -40 20 24
5 95 -22 105 -66 24 -604 62 -862 61 l-80 -1 59 -25z"/>
<path d="M1308 6410 c-54 -5 -89 -22 -75 -36 3 -4 46 -15 94 -25 79 -17 142
-19 624 -19 l537 0 4 38 c3 20 5 38 4 38 -4 5 -1143 9 -1188 4z"/>
<path d="M8402 6413 l-503 -3 3 -40 3 -41 543 1 c336 0 561 4 590 11 26 5 60
21 77 34 l29 24 -28 10 c-15 6 -69 10 -119 9 -51 -2 -318 -4 -595 -5z"/>
<path d="M7920 6183 c0 -32 1 -33 43 -33 23 0 108 -5 189 -12 117 -9 188 -9
340 1 106 7 269 16 362 21 93 6 178 13 189 16 75 24 -114 34 -715 37 l-408 3
0 -33z"/>
<path d="M1410 6201 c-61 -17 48 -34 330 -51 372 -22 714 -14 746 18 8 8 13
19 11 26 -4 12 -1043 20 -1087 7z"/>
<path d="M9680 5540 c0 -5 5 -10 10 -10 6 0 10 5 10 10 0 6 -4 10 -10 10 -5 0
-10 -4 -10 -10z"/>
<path d="M2660 5417 c0 -31 131 -330 206 -469 164 -304 309 -504 524 -719 220
-221 446 -381 733 -519 159 -77 283 -121 475 -170 252 -63 352 -75 622 -75
212 1 249 3 385 28 213 39 398 90 558 153 175 69 243 103 389 197 325 209 525
403 801 782 74 102 164 251 222 370 70 142 165 382 165 415 0 19 -5 21 -42 18
l-43 -3 -7 -60 c-26 -209 -168 -394 -363 -473 -122 -49 -302 -39 -428 24 -138
68 -263 230 -289 374 -7 33 -16 60 -22 60 -19 0 -168 -30 -177 -36 -23 -14 -7
-43 38 -65 75 -37 87 -68 91 -224 7 -266 -34 -339 -193 -340 -38 0 -85 6 -102
14 -28 11 -38 11 -73 -3 -50 -20 -152 -21 -188 -2 -37 19 -68 55 -87 98 -11
28 -15 75 -15 193 0 173 7 204 59 248 30 25 30 27 12 37 -32 17 -167 13 -185
-6 -9 -8 -16 -19 -16 -23 0 -17 -90 -99 -155 -143 -105 -70 -206 -100 -330
-100 -114 0 -210 19 -288 58 -70 36 -183 127 -219 179 -29 41 -34 43 -93 50
-54 5 -104 1 -127 -12 -3 -2 9 -26 27 -53 42 -62 48 -100 43 -281 -2 -123 -6
-149 -23 -179 -42 -70 -145 -98 -248 -65 -47 15 -61 15 -93 5 -21 -7 -70 -13
-110 -14 -63 -1 -75 2 -107 27 -21 16 -47 47 -59 70 -21 38 -23 55 -22 192 2
202 27 268 110 295 40 13 42 24 12 44 -22 14 -175 43 -182 35 -1 -2 -15 -42
-29 -89 -71 -232 -278 -400 -492 -400 -176 0 -263 37 -391 166 -104 104 -151
184 -180 308 -14 61 -21 76 -40 80 -12 3 -29 9 -38 12 -10 4 -16 1 -16 -9z
m2578 -728 c25 -51 30 -54 67 -57 101 -6 109 -24 35 -72 -27 -18 -50 -35 -50
-39 0 -3 7 -31 15 -61 8 -30 15 -58 15 -62 0 -15 -40 6 -71 38 -18 19 -37 34
-42 34 -5 0 -31 -16 -57 -35 -26 -19 -50 -35 -54 -35 -11 0 -6 35 10 84 18 53
16 58 -53 91 -67 32 -51 55 40 55 l58 0 27 59 c15 32 28 58 30 56 1 -1 15 -26
30 -56z m1939 -53 c-50 -66 -98 -119 -103 -114 -2 3 5 14 16 26 12 12 16 22
10 22 -5 0 -10 7 -10 15 0 8 7 15 15 15 15 0 75 57 75 71 0 5 7 9 15 9 12 0 7
-12 -18 -44z m-3806 -157 c21 -22 39 -46 39 -52 0 -7 -3 -7 -9 -1 -56 62 -82
94 -76 94 3 0 24 -18 46 -41z m2588 25 c3 -2 -5 -14 -17 -27 -24 -25 -28 -57
-11 -89 16 -30 6 -31 -31 -3 -37 27 -69 32 -88 13 -9 -9 -12 -6 -12 14 0 15
-4 30 -10 33 -18 11 -10 33 15 39 14 4 25 13 25 21 0 12 11 14 63 8 34 -3 64
-7 66 -9z m-1416 -15 c80 -12 95 -20 72 -39 -8 -7 -15 -20 -15 -29 0 -14 -7
-17 -29 -13 -22 3 -35 -3 -55 -25 l-27 -28 7 38 c6 33 2 43 -27 79 -22 29 -27
39 -15 35 10 -4 50 -12 89 -18z m-1092 -16 c13 -16 12 -17 -3 -4 -17 13 -22
21 -14 21 2 0 10 -8 17 -17z m3562 -36 c-2 -4 -10 -4 -16 -1 -7 4 -9 4 -5 -1
10 -10 -11 -37 -22 -30 -5 3 -12 0 -16 -6 -4 -8 -3 -9 4 -5 60 37 -137 -161
-268 -269 -85 -70 -99 -80 -238 -169 -355 -225 -812 -349 -1277 -346 -162 1
-295 17 -160 19 123 2 128 4 136 31 6 23 7 23 8 3 1 -12 5 -24 10 -27 14 -9
41 4 41 20 0 8 5 14 10 14 6 0 10 -8 10 -19 0 -10 9 -21 20 -24 11 -3 18 -1
14 4 -3 5 -1 9 5 9 5 0 11 6 14 13 2 6 3 4 2 -5 -2 -10 1 -21 6 -24 9 -5 19
11 23 43 2 14 12 18 42 19 33 1 34 1 7 -3 -27 -3 -33 -9 -33 -29 0 -15 6 -24
15 -24 8 0 15 6 15 13 0 7 3 8 8 2 9 -12 42 -16 42 -5 0 4 7 10 14 13 10 4 13
1 9 -9 -5 -13 4 -14 58 -9 40 5 69 13 78 24 9 11 15 12 18 4 3 -8 13 -9 33 -3
16 4 31 5 35 2 3 -4 3 1 -1 11 -5 14 -9 15 -20 6 -10 -8 -14 -8 -14 0 0 6 5
11 10 11 6 0 10 4 10 10 0 5 -20 8 -47 5 -38 -3 -42 -3 -18 4 48 14 75 12 75
-4 0 -24 33 -35 74 -24 20 5 36 15 36 21 0 6 8 8 18 6 12 -4 18 1 18 13 0 21
-11 25 -21 9 -9 -14 -27 -12 -23 2 3 7 27 18 54 26 96 27 93 27 87 1 -4 -19
-3 -21 6 -9 6 8 11 10 11 5 0 -6 10 -12 23 -13 30 -3 107 18 107 30 0 5 5 6
10 3 6 -3 13 0 16 9 3 8 11 13 19 10 7 -3 20 2 29 11 9 9 16 11 16 5 0 -7 9
-6 28 4 15 8 34 17 42 21 50 21 100 53 88 58 -7 3 -3 6 9 6 35 1 72 22 66 37
-5 14 39 30 55 20 15 -9 42 30 29 43 -8 8 -6 11 6 11 9 0 17 -4 17 -10 0 -5 4
-10 9 -10 5 0 4 11 -2 24 -8 16 -16 21 -21 15 -6 -5 -14 -9 -19 -9 -16 0 50
49 131 96 l27 16 -24 -21 c-23 -21 -22 -24 14 -23 17 1 17 0 2 -4 -9 -3 -15
-10 -12 -15 4 -5 14 -5 27 2 15 8 17 14 9 22 -17 17 -13 22 20 23 19 1 38 10
48 21 9 12 23 23 31 26 10 4 7 6 -7 6 -29 1 -30 26 -3 43 11 7 20 18 20 25 0
7 4 13 9 13 5 0 57 48 116 108 59 59 104 101 100 93 -5 -9 -4 -12 3 -7 7 4 12
13 12 21 0 22 34 23 47 1 6 -12 9 -24 6 -29z m-3573 -21 c0 -3 -4 -8 -10 -11
-5 -3 -10 -1 -10 4 0 6 5 11 10 11 6 0 10 -2 10 -4z m135 -76 c38 -38 67 -70
64 -70 -2 0 -36 32 -74 70 -38 39 -67 70 -64 70 2 0 36 -31 74 -70z m25 -95
c21 -23 21 -26 5 -17 -11 5 -31 22 -45 37 -21 23 -21 26 -5 17 11 -5 31 -22
45 -37z m471 -266 c23 -11 39 -23 36 -26 -3 -3 -25 7 -49 21 -52 31 -43 34 13
5z m2269 -59 c-8 -5 -19 -10 -25 -10 -5 0 -3 5 5 10 8 5 20 10 25 10 6 0 3 -5
-5 -10z m-2045 -58 c-6 -7 -52 10 -75 29 -22 17 -19 17 26 -3 29 -13 51 -24
49 -26z m-137 4 c26 -13 64 -29 84 -35 45 -15 137 -61 122 -61 -26 0 -284 118
-261 120 4 0 29 -11 55 -24z m412 -156 c0 -5 -5 -10 -11 -10 -5 0 -7 5 -4 10
3 6 8 10 11 10 2 0 4 -4 4 -10z m50 -19 c0 -5 -9 -7 -20 -4 -11 3 -20 7 -20 9
0 2 9 4 20 4 11 0 20 -4 20 -9z m1075 -1 c3 -5 1 -10 -4 -10 -6 0 -11 5 -11
10 0 6 2 10 4 10 3 0 8 -4 11 -10z m-598 -42 c-3 -7 -5 -2 -5 12 0 14 2 19 5
13 2 -7 2 -19 0 -25z m30 0 c-3 -7 -5 -2 -5 12 0 14 2 19 5 13 2 -7 2 -19 0
-25z m423 18 c0 -2 -7 -7 -16 -10 -8 -3 -12 -2 -9 4 6 10 25 14 25 6z m-613
-32 c-3 -3 -12 -4 -19 -1 -8 3 -5 6 6 6 11 1 17 -2 13 -5z"/>
<path d="M6526 4081 c-4 -5 0 -11 6 -14 10 -3 10 -10 -1 -28 -13 -21 -12 -23
1 -12 8 7 17 10 20 7 3 -2 8 2 12 11 3 9 -1 18 -9 21 -8 4 -12 10 -9 15 3 5 1
9 -5 9 -5 0 -12 -4 -15 -9z"/>
<path d="M6481 4051 c-9 -6 -5 -8 13 -8 14 0 26 3 26 8 0 11 -21 11 -39 0z"/>
<path d="M5862 3740 c0 -14 2 -19 5 -12 2 6 2 18 0 25 -3 6 -5 1 -5 -13z"/>
<path d="M5810 3726 c0 -9 5 -16 10 -16 6 0 10 4 10 9 0 6 -4 13 -10 16 -5 3
-10 -1 -10 -9z"/>
<path d="M1262 5313 c-30 -6 -39 -30 -18 -51 15 -16 75 -17 676 -20 629 -3
660 -2 660 15 0 10 -3 27 -6 38 -5 20 -14 20 -647 21 -353 1 -652 -1 -665 -3z"/>
<path d="M8250 5310 l-445 -5 -3 -32 -3 -31 77 -7 c104 -10 1251 1 1288 12 42
13 57 40 32 59 -21 15 -4 15 -946 4z"/>
<path d="M1375 5102 c-71 -7 -137 -24 -127 -34 26 -26 181 -47 382 -52 778
-20 983 -19 1020 4 11 7 12 16 4 37 -9 27 -13 28 -99 36 -85 7 -1116 15 -1180
9z"/>
<path d="M8049 5099 c-135 -4 -256 -10 -267 -14 -17 -5 -22 -14 -22 -39 l0
-33 133 -7 c72 -3 198 -2 279 4 82 5 293 10 470 9 188 0 346 4 378 11 120 23
151 47 79 61 -50 10 -763 15 -1050 8z"/>
<path d="M8380 4877 c-6 -5 -347 -17 -503 -17 l-108 0 3 -37 3 -38 210 -3
c116 -1 407 2 648 7 393 9 441 11 458 27 20 18 25 39 10 48 -11 7 -714 20
-721 13z"/>
<path d="M1323 4854 c-9 -23 8 -46 43 -57 27 -9 319 -13 1018 -17 303 -2 310
-1 298 42 -11 45 -12 45 -700 47 -602 2 -653 1 -659 -15z"/>
<path d="M1662 4329 c-17 -6 -22 -15 -20 -31 3 -23 6 -23 149 -26 l145 -3 0
36 0 35 -125 -1 c-70 0 -136 -4 -149 -10z"/>
<path d="M1970 4316 c0 -57 -11 -56 506 -56 309 0 482 4 495 10 21 12 25 40 7
58 -9 9 -136 12 -510 12 l-498 0 0 -24z"/>
<path d="M7493 4332 c-50 -2 -65 -7 -73 -22 -7 -13 -7 -26 -1 -38 9 -16 38
-17 443 -15 238 1 535 2 659 2 l226 1 12 26 c26 57 44 56 -608 52 -328 -2
-624 -4 -658 -6z"/>
<path d="M2553 3973 c-39 -7 -70 -71 -43 -88 5 -3 23 4 38 15 33 24 75 23 80
-1 2 -9 -14 -34 -35 -55 -54 -56 -73 -85 -73 -116 0 -28 1 -28 64 -28 73 0 96
6 96 26 0 10 -13 14 -45 14 -29 0 -45 4 -45 12 0 7 23 36 51 64 48 49 51 55
45 88 -10 51 -69 82 -133 69z"/>
<path d="M2198 3964 c-22 -7 -32 -38 -24 -77 9 -46 39 -77 73 -77 33 0 53 -16
53 -42 0 -14 -8 -18 -39 -18 -22 0 -44 6 -51 15 -16 19 -30 10 -30 -21 0 -17
8 -27 26 -34 30 -12 94 -13 110 -2 36 24 45 101 15 131 -15 15 -28 18 -66 14
l-46 -6 3 34 c4 42 29 49 70 19 33 -24 58 -21 58 8 0 31 -36 55 -87 58 -27 1
-56 0 -65 -2z"/>
<path d="M2828 3958 c-19 -15 -26 -47 -15 -65 12 -19 25 -16 32 6 7 22 29 33
50 25 25 -10 20 -81 -6 -95 -17 -9 -19 -13 -8 -20 19 -12 -6 -29 -44 -29 -26
0 -28 -3 -25 -32 3 -33 3 -33 53 -30 42 3 54 9 76 35 26 30 28 30 66 19 64
-19 83 -16 83 13 0 15 11 36 26 50 20 19 23 25 11 25 -9 0 -28 15 -44 34 -26
33 -28 34 -41 15 -16 -23 -62 -26 -62 -4 0 9 -11 27 -25 40 -18 19 -35 25 -68
25 -24 0 -50 -6 -59 -12z"/>
<path d="M7527 3951 c-8 -31 6 -43 37 -31 15 5 49 10 76 10 27 0 51 4 55 9 10
18 -33 31 -98 31 -55 0 -65 -3 -70 -19z"/>
<path d="M7832 3963 c-13 -3 -28 -15 -34 -28 -9 -19 -7 -31 11 -60 11 -20 21
-43 21 -51 0 -10 12 -14 39 -14 38 0 51 -11 51 -46 0 -22 -66 -18 -90 6 l-20
20 0 -36 c0 -30 4 -37 34 -49 49 -21 103 -9 121 26 21 39 19 72 -6 103 -17 22
-28 26 -70 26 -49 0 -50 1 -47 28 3 24 7 27 38 26 19 -1 44 -3 55 -5 31 -6 34
46 3 55 -25 6 -69 6 -106 -1z"/>
<path d="M8175 3963 c-37 -6 -57 -21 -53 -42 3 -13 17 -16 72 -16 100 0 99 -9
-12 -108 -24 -22 -32 -37 -32 -63 l0 -35 77 3 c65 3 78 6 81 21 3 13 -4 17
-30 17 -18 0 -40 5 -48 10 -12 8 -8 15 23 41 59 48 84 117 58 158 -9 15 -85
22 -136 14z"/>
<path d="M7391 3913 c-12 -43 -17 -47 -83 -59 -46 -8 -49 -22 -6 -26 27 -3 33
-8 42 -43 7 -24 15 -35 19 -28 5 8 17 9 40 2 47 -13 48 -12 45 29 l-3 37 50 5
c47 5 48 6 20 13 -46 13 -73 34 -94 75 l-19 37 -11 -42z"/>
<path d="M7050 3806 c0 -8 5 -18 10 -21 6 -3 10 3 10 14 0 12 -4 21 -10 21 -5
0 -10 -6 -10 -14z"/>
<path d="M7552 3730 c3 -24 6 -25 63 -25 46 0 60 4 63 15 2 12 -13 18 -63 26
l-66 10 3 -26z"/>
<path d="M3265 3620 c3 -5 8 -10 11 -10 2 0 4 5 4 10 0 6 -5 10 -11 10 -5 0
-7 -4 -4 -10z"/>
<path d="M1745 3240 l-129 -5 32 -30 c35 -33 28 1 92 -415 11 -69 31 -197 44
-285 14 -88 33 -225 42 -305 l17 -145 123 3 123 3 5 32 c3 18 12 93 21 167 9
74 27 211 41 303 13 93 24 183 24 199 0 17 2 29 4 27 4 -4 45 -248 92 -551
l28 -178 118 0 c65 0 118 2 118 4 0 21 45 337 60 426 11 63 36 214 55 335 52
326 60 360 98 389 17 14 29 27 27 29 -3 2 -67 1 -143 -2 l-139 -6 21 -24 c26
-29 26 -16 -4 -191 -14 -80 -41 -246 -60 -370 -20 -124 -39 -234 -44 -245 -5
-13 -10 10 -14 70 -4 50 -18 158 -32 240 -33 190 -39 230 -60 393 l-18 132
-93 0 -94 0 0 -32 c0 -18 -13 -116 -29 -218 -16 -102 -42 -273 -56 -380 -34
-248 -38 -262 -46 -185 -4 33 -22 170 -42 305 -64 443 -63 439 -44 472 20 35
22 49 5 46 -7 -1 -71 -5 -143 -8z"/>
<path d="M2890 3241 c0 -2 14 -19 30 -38 l30 -34 0 -513 0 -513 -31 -39 -31
-39 82 -3 c44 -2 114 -2 155 0 l75 3 -32 48 -31 48 2 496 c2 520 1 507 46 568
14 20 12 20 -140 20 -85 0 -155 -2 -155 -4z"/>
<path d="M3370 3238 c0 -4 11 -24 25 -44 l25 -37 0 -513 0 -512 -25 -30 c-14
-17 -25 -31 -25 -33 0 -2 59 -4 130 -5 72 -1 130 1 130 3 0 3 -9 17 -21 31
-20 25 -20 36 -18 379 1 195 5 350 9 346 4 -5 12 -33 19 -63 6 -30 36 -131 65
-225 77 -244 125 -405 132 -442 l7 -33 106 0 106 0 -3 552 -3 551 26 38 c14
21 25 40 25 42 0 4 -244 -4 -249 -9 -2 -2 3 -12 12 -22 15 -17 17 -56 16 -373
-1 -201 -5 -341 -9 -324 -5 17 -23 84 -40 150 -18 66 -47 167 -65 225 -18 58
-50 160 -71 227 l-37 122 -133 3 c-74 2 -134 0 -134 -4z"/>
<path d="M4495 3246 c-5 -3 -27 -7 -48 -11 -48 -8 -114 -65 -138 -120 -16 -35
-19 -88 -25 -430 -8 -448 -4 -482 54 -547 59 -65 95 -78 221 -78 126 0 145 5
201 56 74 67 76 75 85 394 l6 195 -141 -2 -141 -3 -2 -82 -2 -83 48 -3 47 -3
0 -130 c0 -116 -2 -131 -20 -149 -28 -28 -122 -28 -150 0 -19 19 -20 33 -20
403 0 210 4 387 8 393 23 34 94 44 141 19 37 -18 41 -31 41 -120 l0 -74 93 -3
92 -3 -3 95 c-2 52 -7 111 -13 131 -11 45 -73 118 -116 135 -31 14 -197 28
-218 20z"/>
<path d="M6625 3225 c9 -11 22 -29 30 -40 16 -23 21 -238 17 -747 l-2 -286
-36 -47 -35 -47 228 4 c199 3 232 5 263 22 49 26 79 55 103 101 21 39 22 52
25 455 2 288 0 427 -8 453 -15 51 -87 123 -137 136 -21 5 -133 11 -250 13
-211 3 -212 3 -198 -17z m338 -155 c24 0 44 -7 58 -21 21 -21 21 -25 15 -397
-6 -440 2 -412 -115 -412 l-66 0 0 421 0 421 35 -6 c19 -3 52 -6 73 -6z"/>
<path d="M7410 3242 c0 -2 14 -20 30 -41 l31 -38 -3 -509 -3 -510 -32 -41
c-18 -22 -33 -42 -33 -44 0 -2 131 -3 291 -1 l291 3 -6 31 c-3 17 -6 61 -6 99
l0 69 -26 -10 c-14 -6 -87 -10 -162 -10 l-137 0 0 166 0 166 125 -4 125 -4 0
91 0 91 -122 -2 -123 -1 0 147 c0 82 -3 156 -6 165 -6 15 7 16 142 13 82 -2
156 -7 164 -11 13 -6 15 7 16 90 l1 98 -279 0 c-153 0 -278 -1 -278 -3z"/>
<path d="M5231 3226 c-47 -17 -111 -73 -127 -112 -11 -27 -14 -119 -14 -459 0
-460 0 -458 55 -523 49 -58 90 -72 211 -72 127 0 174 17 229 84 39 48 53 100
57 224 3 65 0 81 -10 77 -8 -3 -49 -5 -93 -5 l-79 0 0 -85 c0 -72 -3 -88 -20
-105 -28 -28 -108 -28 -144 1 l-26 20 0 383 c0 436 -4 415 87 423 39 4 53 1
76 -17 26 -21 27 -25 27 -113 l0 -92 91 -1 92 -1 -5 116 c-3 78 -10 126 -21
146 -17 34 -81 97 -114 114 -29 15 -229 13 -272 -3z"/>
<path d="M5979 3220 c-20 -11 -49 -34 -64 -52 -58 -68 -58 -67 -58 -518 0
-460 0 -453 67 -528 53 -58 75 -64 219 -60 121 3 127 4 169 33 25 18 55 52 70
80 l28 50 0 438 c0 480 2 463 -62 524 -48 46 -76 53 -211 53 -100 -1 -128 -4
-158 -20z m232 -159 c23 -18 23 -19 20 -247 -6 -524 -8 -547 -32 -566 -41 -34
-143 -15 -160 29 -13 34 -10 742 3 766 21 39 128 51 169 18z"/>
<path d="M8299 3220 c-41 -21 -96 -80 -110 -117 -5 -13 -9 -87 -9 -165 0 -108
4 -148 16 -174 20 -42 87 -103 190 -173 139 -95 134 -87 134 -218 0 -109 -1
-113 -25 -129 -35 -23 -103 -13 -129 18 -16 19 -18 34 -13 93 l6 70 -94 0 -95
0 0 -95 c0 -116 17 -158 85 -218 57 -50 95 -62 195 -62 118 0 207 52 244 142
21 50 23 313 2 361 -17 40 -71 91 -161 152 -168 115 -185 138 -185 244 0 40 4
80 10 90 14 27 64 44 105 37 51 -10 68 -42 63 -119 l-4 -63 66 1 c36 0 78 -2
94 -5 l29 -5 -2 90 c-3 122 -13 156 -62 200 -61 55 -94 65 -211 65 -81 -1
-111 -5 -139 -20z"/>
<path d="M9995 2830 c3 -5 8 -10 11 -10 2 0 4 5 4 10 0 6 -5 10 -11 10 -5 0
-7 -4 -4 -10z"/>
<path d="M5159 1753 l-36 -68 -91 -3 c-51 -1 -92 -6 -92 -11 0 -11 50 -55 91
-80 61 -36 62 -40 35 -127 -14 -43 -23 -80 -20 -83 5 -5 90 36 135 65 25 16
27 16 73 -15 25 -18 62 -39 81 -47 32 -13 35 -13 35 3 0 10 -9 37 -19 59 -41
89 -40 93 40 169 l72 67 -98 -3 -99 -4 -23 60 c-37 95 -44 96 -84 18z"/>
<path d="M4533 1732 l-28 -63 -75 2 c-94 3 -97 -9 -17 -69 31 -24 57 -49 57
-56 0 -7 -9 -39 -20 -71 -31 -90 -30 -91 54 -40 32 19 63 35 69 35 6 0 34 -16
64 -37 29 -20 56 -33 60 -29 4 3 -1 38 -11 76 l-19 70 47 41 c25 23 51 50 57
61 10 19 7 19 -67 16 l-78 -3 -19 50 c-10 28 -25 57 -33 65 -12 12 -17 6 -41
-48z"/>
<path d="M5804 1733 c-29 -67 -48 -78 -118 -66 -19 3 -43 2 -53 -2 -15 -5 -8
-16 45 -63 l62 -57 -20 -69 c-11 -38 -18 -71 -17 -73 2 -1 30 13 61 32 32 19
66 35 75 35 9 0 41 -16 71 -35 78 -50 84 -47 55 31 -14 37 -25 74 -25 83 0 9
25 35 55 58 30 24 55 48 55 54 0 8 -21 10 -69 7 -38 -3 -74 -2 -79 1 -5 3 -15
25 -22 48 -7 24 -21 50 -32 59 -17 16 -19 14 -44 -43z"/>
<path d="M6363 1660 l-41 -40 11 -58 c10 -56 12 -58 41 -58 17 0 39 -4 48 -8
14 -6 20 -2 28 18 9 25 12 26 97 26 49 1 550 2 1115 4 806 3 1031 6 1043 16 8
7 15 25 15 41 l0 29 -292 2 c-161 1 -672 1 -1135 0 -812 -2 -842 -1 -848 17
-3 10 -14 26 -24 35 -17 15 -20 14 -58 -24z"/>
<path d="M3992 1678 c-7 -7 -12 -20 -12 -30 0 -17 -49 -18 -1139 -18 -1033 0
-1141 -2 -1156 -16 -13 -14 -13 -47 1 -63 1 -2 517 -3 1145 -2 l1142 1 -6 -30
c-7 -33 3 -39 24 -14 10 12 24 15 56 10 l42 -6 -1 35 c-1 24 6 43 22 60 l23
25 -26 0 c-17 0 -33 10 -47 30 -22 31 -48 38 -68 18z"/>
<path d="M67 1129 c7 -7 15 -10 18 -7 3 3 -2 9 -12 12 -14 6 -15 5 -6 -5z"/>
<path d="M12 1054 c-2 -48 1 -74 7 -70 6 4 8 32 6 63 -3 33 0 62 7 70 8 10 7
13 -4 13 -10 0 -14 -19 -16 -76z"/>
<path d="M350 896 c0 -2 7 -6 15 -10 8 -3 15 -1 15 4 0 6 -7 10 -15 10 -8 0
-15 -2 -15 -4z"/>
<path d="M330 820 c0 -5 5 -10 11 -10 5 0 7 5 4 10 -3 6 -8 10 -11 10 -2 0 -4
-4 -4 -10z"/>
<path d="M500 761 c0 -6 4 -13 10 -16 6 -3 7 1 4 9 -7 18 -14 21 -14 7z"/>
<path d="M115 750 c3 -5 8 -10 11 -10 2 0 4 5 4 10 0 6 -5 10 -11 10 -5 0 -7
-4 -4 -10z"/>
<path d="M440 590 c0 -5 5 -10 11 -10 5 0 7 5 4 10 -3 6 -8 10 -11 10 -2 0 -4
-4 -4 -10z"/>
<path d="M11 464 c0 -11 3 -14 6 -6 3 7 2 16 -1 19 -3 4 -6 -2 -5 -13z"/>
<path d="M440 371 c0 -5 5 -13 10 -16 6 -3 10 -2 10 4 0 5 -4 13 -10 16 -5 3
-10 2 -10 -4z"/>
<path d="M400 220 c0 -5 5 -10 10 -10 6 0 10 5 10 10 0 6 -4 10 -10 10 -5 0
-10 -4 -10 -10z"/>
<path d="M18 203 c7 -3 16 -2 19 1 4 3 -2 6 -13 5 -11 0 -14 -3 -6 -6z"/>
<path d="M470 201 c0 -5 5 -13 10 -16 6 -3 10 -2 10 4 0 5 -4 13 -10 16 -5 3
-10 2 -10 -4z"/>
<path d="M18 133 c6 -2 18 -2 25 0 6 3 1 5 -13 5 -14 0 -19 -2 -12 -5z"/>
<path d="M17 100 c7 -25 9 -25 16 0 3 12 0 20 -8 20 -8 0 -11 -8 -8 -20z"/>
<path d="M22 40 c1 -17 7 -34 12 -37 5 -4 7 3 4 15 -3 12 -2 22 2 24 4 2 2 9
-6 16 -12 11 -14 8 -12 -18z"/>
<path d="M77 29 c7 -7 15 -10 18 -7 3 3 -2 9 -12 12 -14 6 -15 5 -6 -5z"/>
<path d="M8785 10 c-3 -5 -1 -10 4 -10 6 0 11 5 11 10 0 6 -2 10 -4 10 -3 0
-8 -4 -11 -10z"/>
</g>
</svg>
