<?xml version="1.0" standalone="no"?>
<!DOCTYPE svg PUBLIC "-//W3C//DTD SVG 20010904//EN"
 "http://www.w3.org/TR/2001/REC-SVG-20010904/DTD/svg10.dtd">
<svg version="1.0" xmlns="http://www.w3.org/2000/svg"
 width="900.000000pt" height="510.000000pt" viewBox="0 0 900.000000 510.000000"
 preserveAspectRatio="xMidYMid meet">
<metadata>
Created by potrace 1.10, written by Peter Selinger 2001-2011
</metadata>
<g transform="translate(0.000000,510.000000) scale(0.100000,-0.100000)"
fill="#f9f9f9" stroke="none">
<path d="M4546 4103 c-3 -76 -9 -193 -13 -260 l-6 -123 37 0 c24 0 39 5 43 16
7 19 -13 463 -23 487 -3 9 -12 17 -19 17 -9 0 -14 -37 -19 -137z"/>
<path d="M4505 3654 c-42 -11 -91 -40 -123 -74 -34 -36 -72 -109 -72 -139 0
-9 -7 -28 -14 -43 -17 -32 -32 -131 -41 -268 -8 -110 -26 -154 -82 -197 -83
-64 -191 -91 -301 -74 -39 6 -95 11 -124 11 -29 0 -107 7 -173 15 -137 17
-331 38 -555 60 -85 9 -198 20 -250 26 -52 6 -140 15 -195 19 -55 4 -138 13
-185 19 -152 19 -283 33 -380 41 -52 4 -133 13 -180 18 -47 6 -146 18 -220 26
-74 8 -178 20 -230 26 -52 6 -144 15 -205 20 -60 5 -137 14 -170 19 -76 14
-215 14 -215 1 0 -5 10 -11 23 -14 66 -12 188 -39 233 -52 28 -8 61 -14 74
-14 13 0 46 -6 74 -14 49 -14 92 -24 271 -61 44 -9 105 -23 135 -30 30 -7 91
-21 135 -30 44 -9 103 -23 131 -31 28 -8 61 -14 74 -14 13 0 46 -6 74 -14 28
-8 87 -22 131 -31 44 -9 103 -23 131 -31 28 -8 61 -14 74 -14 13 0 46 -6 74
-14 28 -8 87 -22 131 -31 67 -14 163 -37 213 -51 9 -2 12 -36 12 -122 0 -159
14 -174 93 -96 43 42 58 72 69 139 4 27 56 31 128 12 30 -8 91 -23 135 -32
159 -33 221 -47 260 -58 22 -5 60 -13 85 -17 25 -4 65 -12 90 -18 25 -6 83
-20 130 -30 l85 -19 0 -39 c0 -38 -1 -39 -37 -42 -25 -2 -41 -10 -48 -22 -6
-12 -9 -83 -8 -177 l3 -158 45 0 45 0 5 50 c5 50 5 50 39 48 40 -2 51 -15 51
-66 l0 -38 43 3 42 3 0 175 0 175 -41 3 c-42 3 -57 19 -47 50 11 30 185 -1
234 -42 66 -56 172 -96 257 -96 46 0 54 -3 64 -25 9 -19 9 -28 0 -37 -18 -18
-15 -134 4 -164 42 -63 90 -47 119 40 15 44 16 60 7 97 -14 55 4 89 45 89 39
0 154 29 188 47 17 9 47 30 68 46 59 46 221 75 233 42 9 -24 -15 -45 -51 -45
-53 0 -56 -11 -53 -191 l3 -164 50 0 50 0 6 43 c7 53 20 68 47 53 15 -8 22
-23 24 -54 l3 -42 50 0 50 0 3 158 c1 94 -2 165 -8 177 -7 12 -23 20 -48 22
-36 3 -37 4 -37 43 l0 39 80 19 c44 11 105 25 135 32 30 7 78 19 105 25 28 7
70 16 95 21 88 16 156 32 193 45 20 8 49 14 62 14 14 0 52 7 84 16 70 20 91
15 91 -23 0 -62 91 -183 139 -183 25 0 31 26 31 143 0 84 3 100 20 117 11 11
31 20 45 20 14 0 51 6 83 14 31 8 93 22 137 31 44 9 102 23 129 31 26 8 59 14
73 14 13 0 33 5 43 10 10 6 45 14 77 19 70 12 138 27 318 71 28 7 70 16 95 20
25 4 65 12 90 18 25 6 68 16 95 23 28 6 68 15 90 20 38 7 68 14 175 41 25 6
65 14 90 19 60 10 138 28 177 40 18 6 54 14 80 19 27 6 77 15 113 22 64 13
120 41 120 60 0 7 -22 8 -57 5 -32 -3 -112 -11 -178 -16 -66 -6 -151 -15 -190
-21 -121 -18 -400 -49 -615 -69 -63 -6 -128 -13 -145 -17 -16 -3 -93 -12 -170
-20 -270 -27 -410 -43 -430 -49 -11 -2 -69 -9 -130 -15 -135 -12 -266 -27
-365 -41 -41 -5 -118 -14 -170 -19 -115 -11 -314 -34 -430 -51 -47 -6 -148
-12 -225 -13 -125 -1 -145 1 -185 21 -110 53 -141 115 -150 308 -7 140 -20
215 -46 268 -8 16 -14 33 -14 39 0 19 -71 98 -110 124 -30 20 -54 26 -112 29
-40 2 -82 2 -93 -1z"/>
<path d="M4300 3623 c-19 -2 -66 -10 -105 -17 -70 -14 -185 -34 -365 -62 -52
-9 -125 -22 -161 -30 -37 -8 -80 -14 -95 -14 -16 0 -45 -4 -64 -10 -19 -5 -66
-14 -104 -19 -64 -9 -97 -23 -84 -36 6 -7 825 15 897 23 50 7 54 9 77 52 13
25 35 56 47 70 24 25 26 51 4 48 -7 0 -28 -3 -47 -5z"/>
<path d="M4794 3616 c-3 -8 4 -24 15 -35 11 -11 29 -38 40 -59 11 -21 25 -43
33 -49 23 -18 106 -23 527 -33 226 -5 422 -12 436 -16 19 -5 25 -2 25 9 0 23
-14 29 -104 43 -45 7 -124 20 -176 29 -52 9 -124 21 -160 26 -36 5 -85 13
-110 18 -59 13 -167 30 -260 41 -41 5 -95 14 -120 19 -90 19 -140 22 -146 7z"/>
<path d="M6470 2652 c-73 -40 -104 -120 -74 -197 24 -65 67 -95 133 -95 61 0
93 18 127 72 80 127 -57 290 -186 220z"/>
<path d="M2453 2632 c-33 -29 -63 -80 -63 -109 0 -10 8 -40 17 -67 34 -94 130
-125 210 -67 77 55 79 165 5 237 -31 30 -41 34 -86 34 -41 0 -57 -6 -83 -28z"/>
<path d="M5692 2519 c-57 -22 -91 -103 -71 -169 18 -60 51 -85 110 -85 42 0
53 5 81 33 30 29 33 37 33 95 0 71 -21 109 -69 127 -35 12 -53 12 -84 -1z"/>
<path d="M3257 2500 c-14 -11 -33 -40 -42 -64 -14 -37 -15 -50 -5 -81 24 -74
86 -108 153 -86 51 17 77 59 77 127 0 50 -3 59 -34 90 -29 29 -41 34 -79 34
-29 0 -53 -7 -70 -20z"/>
<path d="M2890 2003 c-51 -20 -32 -103 23 -103 34 0 48 14 49 50 1 46 -30 69
-72 53z"/>
<path d="M4457 1920 c-95 -24 -170 -90 -213 -187 -49 -109 -21 -237 71 -329
83 -83 121 -95 294 -92 l145 3 7 29 c15 57 5 61 -148 61 -111 0 -144 4 -168
17 -130 73 -158 237 -59 347 30 34 54 50 88 59 69 18 158 15 218 -8 29 -11 54
-20 55 -20 6 0 33 74 33 90 0 10 -10 21 -22 24 -39 12 -261 16 -301 6z"/>
<path d="M2056 1902 c-5 -9 7 -64 40 -177 8 -27 19 -66 24 -85 5 -19 16 -57
24 -85 9 -27 21 -70 27 -95 7 -25 20 -67 29 -95 16 -46 20 -50 53 -53 33 -3
38 0 55 35 10 21 26 65 36 98 10 33 25 75 32 93 8 18 14 40 14 50 0 24 38 84
49 78 5 -3 11 -23 14 -43 3 -21 15 -69 27 -108 12 -38 25 -86 29 -105 4 -19
15 -50 25 -68 15 -30 21 -33 54 -30 40 3 47 16 87 153 43 144 50 168 85 265 6
19 15 51 19 70 4 19 13 45 20 58 20 37 7 52 -44 52 -51 0 -48 3 -80 -105 -10
-33 -24 -80 -31 -105 -8 -25 -22 -72 -31 -106 -10 -33 -22 -62 -26 -65 -9 -4
-33 52 -47 111 -4 19 -14 51 -20 70 -32 89 -40 117 -40 136 0 34 -29 65 -58
62 -23 -3 -30 -12 -45 -58 -10 -30 -23 -68 -28 -85 -16 -45 -39 -125 -50 -171
-6 -23 -19 -50 -29 -59 -18 -17 -19 -16 -25 11 -10 47 -13 58 -24 89 -5 17
-17 57 -26 90 -9 33 -21 74 -27 90 -5 17 -13 44 -17 60 -6 27 -11 30 -48 33
-23 2 -44 -1 -47 -6z"/>
<path d="M5031 1823 c-42 -9 -129 -70 -155 -110 -50 -75 -55 -189 -12 -271 21
-40 74 -91 120 -115 60 -30 186 -28 241 4 52 30 94 72 119 118 28 53 28 181
-1 236 -46 89 -119 134 -221 140 -37 2 -78 1 -91 -2z m167 -119 c46 -36 76
-104 68 -156 -19 -120 -133 -181 -240 -128 -62 30 -86 72 -86 153 0 65 1 68
43 112 43 45 44 45 112 45 58 0 73 -4 103 -26z"/>
<path d="M5458 1823 c-22 -6 -31 -175 -21 -368 l8 -140 146 -3 c127 -2 151 0
190 17 55 24 88 54 123 109 23 37 26 52 26 132 0 79 -3 95 -25 130 -31 50 -60
76 -110 103 -35 18 -59 21 -180 23 -77 1 -147 0 -157 -3z m303 -115 c72 -53
91 -153 44 -228 -34 -54 -65 -67 -170 -71 l-90 -4 -3 163 -2 162 95 0 c83 0
100 -3 126 -22z"/>
<path d="M6166 1823 c-30 -8 -92 -49 -121 -80 -44 -47 -65 -105 -65 -180 0
-104 55 -191 150 -236 61 -30 195 -30 257 -2 48 23 54 31 42 63 -12 31 -55 50
-80 34 -26 -17 -144 -15 -177 2 -41 21 -88 74 -76 86 5 5 96 11 204 12 l195 3
3 40 c7 88 -53 197 -131 237 -42 21 -158 34 -201 21z m169 -124 c22 -20 35
-40 35 -55 l0 -25 -132 3 c-127 3 -133 4 -130 23 2 11 19 35 39 53 32 28 43
32 94 32 51 0 63 -4 94 -31z"/>
<path d="M6665 1821 c-77 -26 -108 -64 -113 -141 -3 -45 0 -61 20 -89 39 -58
70 -68 207 -72 128 -4 141 -9 141 -54 0 -47 -11 -50 -177 -55 l-158 -5 -5 -30
c-13 -66 -16 -65 178 -65 172 0 176 0 209 26 35 27 73 90 73 123 0 41 -39 109
-77 135 -35 24 -45 26 -154 26 -100 0 -118 3 -132 18 -22 24 -21 55 1 75 16
14 43 17 174 17 167 0 168 0 168 54 0 42 -15 46 -179 45 -86 -1 -165 -4 -176
-8z"/>
<path d="M2881 1807 c-8 -11 -11 -81 -9 -253 l3 -239 40 0 40 0 0 250 0 250
-31 3 c-18 2 -36 -3 -43 -11z"/>
<path d="M3077 1813 c-9 -8 -9 -466 -1 -487 6 -16 39 -21 68 -10 14 5 16 29
16 160 0 131 2 156 16 161 9 3 21 -3 30 -16 17 -23 125 -151 211 -249 49 -55
60 -63 87 -60 l31 3 0 250 0 250 -37 3 c-56 5 -62 -15 -55 -175 9 -179 9 -179
-108 -38 -22 26 -45 53 -51 59 -5 6 -38 44 -73 84 -53 62 -66 72 -95 72 -18 0
-36 -3 -39 -7z"/>
<path d="M3780 1802 c-78 -38 -124 -98 -140 -181 -22 -118 36 -238 143 -293
32 -16 54 -19 120 -15 45 2 92 7 105 12 19 6 22 4 22 -16 0 -13 -10 -37 -23
-53 -33 -41 -110 -48 -173 -16 l-45 22 -35 -24 c-48 -32 -42 -56 21 -87 40
-20 65 -25 131 -25 72 0 85 3 124 30 24 16 57 47 72 69 l27 40 1 278 0 277
-31 0 c-19 0 -37 -7 -45 -17 -11 -16 -16 -17 -46 -4 -51 23 -185 24 -228 3z
m193 -92 c48 -38 69 -85 69 -155 0 -50 -5 -70 -23 -94 -61 -83 -189 -80 -254
5 -22 29 -26 45 -26 100 0 73 18 113 67 145 41 27 132 26 167 -1z"/>
<path d="M4284 1234 c-17 -55 -24 -63 -59 -70 -46 -8 -44 -24 8 -49 28 -14 44
-28 47 -45 8 -36 32 -31 52 12 13 27 27 40 49 45 37 10 38 25 3 35 -31 8 -64
36 -64 53 0 7 -7 18 -15 25 -12 10 -16 9 -21 -6z"/>
<path d="M4700 1221 c0 -36 -12 -51 -39 -51 -15 0 -35 -6 -46 -13 -16 -13 -14
-16 28 -36 31 -15 49 -31 56 -52 13 -39 26 -37 55 10 14 22 38 43 55 49 41 14
39 28 -3 36 -25 5 -41 16 -56 41 -24 38 -50 46 -50 16z"/>
<path d="M5041 1161 c-8 -5 -11 -16 -8 -25 6 -15 95 -16 989 -14 975 3 983 3
983 23 0 20 -7 20 -975 22 -554 2 -981 -1 -989 -6z"/>
<path d="M2085 1151 c-3 -5 -2 -12 2 -14 14 -9 1468 -12 1481 -4 7 5 10 13 7
18 -8 12 -1482 12 -1490 0z"/>
</g>
</svg>
