<?xml version="1.0" standalone="no"?>
<!DOCTYPE svg PUBLIC "-//W3C//DTD SVG 20010904//EN"
 "http://www.w3.org/TR/2001/REC-SVG-20010904/DTD/svg10.dtd">
<svg version="1.0" xmlns="http://www.w3.org/2000/svg"
 width="300.000000pt" height="170.000000pt" viewBox="0 0 300.000000 170.000000"
 preserveAspectRatio="xMidYMid meet">
<metadata>
Created by potrace 1.10, written by Peter Selinger 2001-2011
</metadata>
<g transform="translate(0.000000,170.000000) scale(0.100000,-0.100000)"
fill="#f9f9f9" stroke="none">
<path d="M1521 1370 c-1 -30 -4 -72 -7 -92 -5 -31 -4 -38 10 -38 13 0 16 11
15 68 -1 88 -17 141 -18 62z"/>
<path d="M1471 1203 c-23 -19 -51 -106 -51 -158 0 -42 -24 -72 -64 -84 -35 -9
-54 -7 -729 65 -185 19 -342 34 -348 32 -7 -2 118 -32 277 -67 422 -92 374
-76 374 -127 0 -24 4 -44 8 -44 14 0 42 35 42 53 0 21 11 21 112 -2 46 -11
109 -24 141 -31 37 -7 57 -16 57 -26 0 -8 -7 -14 -15 -14 -12 0 -15 -13 -15
-60 0 -47 3 -60 15 -60 8 0 15 9 15 20 0 26 20 26 27 0 3 -11 12 -20 19 -20
10 0 14 16 14 60 0 47 -3 60 -15 60 -8 0 -15 5 -15 10 0 17 43 11 78 -10 19
-12 50 -24 70 -28 33 -7 37 -11 34 -37 -1 -17 2 -37 8 -45 9 -13 12 -12 26 5
8 11 13 31 12 44 -3 20 3 26 37 36 22 7 55 20 72 30 18 9 43 14 55 12 l23 -4
-22 -8 c-20 -6 -23 -14 -23 -66 0 -52 2 -59 19 -59 12 0 21 8 24 23 l4 22 8
-22 c4 -13 16 -23 26 -23 16 0 19 8 19 56 0 47 -3 57 -20 61 -18 5 -30 33 -14
33 3 0 64 14 136 30 153 35 148 35 148 12 0 -18 29 -52 43 -52 3 0 7 19 9 42
l3 43 315 70 c368 83 374 84 368 91 -3 2 -228 -20 -500 -51 -272 -30 -518 -55
-545 -55 -85 0 -102 30 -113 192 0 3 -12 20 -26 37 -20 25 -34 31 -64 31 -21
0 -47 -8 -59 -17z"/>
<path d="M1255 1181 l-150 -26 130 -3 c158 -4 188 1 209 33 16 25 16 25 -11
24 -16 -1 -95 -13 -178 -28z"/>
<path d="M1616 1185 c9 -14 17 -26 18 -27 4 -4 326 -12 326 -8 0 5 -320 60
-348 60 -9 0 -8 -7 4 -25z"/>
<path d="M816 874 c-31 -30 -9 -84 34 -84 11 0 27 11 36 25 15 23 15 27 0 50
-19 29 -47 32 -70 9z"/>
<path d="M2146 874 c-31 -30 -9 -84 34 -84 22 0 50 26 50 46 0 48 -51 71 -84
38z"/>
<path d="M1890 830 c-24 -24 -24 -30 -7 -54 8 -11 23 -17 38 -14 19 2 25 10
27 35 4 44 -28 63 -58 33z"/>
<path d="M1082 828 c-27 -27 -6 -68 35 -68 24 0 40 36 29 65 -7 18 -47 20 -64
3z"/>
<path d="M960 655 c0 -8 7 -15 15 -15 8 0 15 7 15 15 0 8 -7 15 -15 15 -8 0
-15 -7 -15 -15z"/>
<path d="M1470 633 c-68 -35 -79 -106 -26 -159 31 -31 40 -34 90 -34 43 0 56
3 56 15 0 11 -12 15 -49 15 -62 0 -92 22 -93 69 -1 26 6 40 26 58 29 25 51 28
89 14 20 -8 27 -6 31 6 8 21 7 22 -45 28 -32 5 -54 1 -79 -12z"/>
<path d="M690 628 c0 -7 7 -35 15 -63 9 -27 20 -67 26 -87 16 -63 44 -43 65
45 10 45 20 39 38 -23 23 -85 40 -79 72 28 15 48 29 93 31 100 3 7 -3 12 -13
12 -15 0 -24 -16 -40 -68 l-20 -67 -20 64 c-10 35 -24 66 -31 68 -7 3 -19 -18
-29 -54 -9 -32 -19 -62 -24 -66 -4 -4 -15 22 -25 58 -11 40 -22 65 -31 65 -8
0 -14 -6 -14 -12z"/>
<path d="M960 525 c0 -69 3 -85 15 -85 12 0 15 16 15 85 0 69 -3 85 -15 85
-12 0 -15 -16 -15 -85z"/>
<path d="M1030 525 c0 -69 3 -85 15 -85 12 0 15 13 15 58 l0 57 51 -57 c28
-32 55 -58 60 -58 5 0 9 38 9 85 0 68 -3 85 -15 85 -10 0 -15 -15 -17 -55 l-3
-55 -45 55 c-25 30 -51 55 -57 55 -10 0 -13 -24 -13 -85z"/>
<path d="M1244 587 c-20 -17 -26 -32 -26 -62 0 -54 39 -88 94 -83 41 4 47 -2
23 -22 -9 -8 -28 -10 -49 -6 -39 8 -56 -8 -27 -23 31 -17 79 -13 101 9 17 17
20 33 20 113 l0 92 -55 2 c-44 2 -59 -1 -81 -20z m96 -26 c14 -26 13 -64 -2
-79 -17 -17 -54 -15 -72 4 -19 18 -21 65 -4 82 19 19 66 15 78 -7z"/>
<path d="M1644 586 c-22 -18 -28 -32 -27 -62 3 -112 173 -111 173 1 0 76 -87
112 -146 61z m98 -23 c35 -31 10 -93 -38 -93 -45 0 -67 47 -44 91 13 24 57 25
82 2z"/>
<path d="M1817 582 c-3 -16 -3 -54 0 -85 l6 -57 54 0 c68 0 103 29 103 85 0
56 -35 85 -103 85 -52 0 -55 -1 -60 -28z m115 -19 c10 -9 18 -24 18 -35 0 -28
-36 -58 -70 -58 -30 0 -30 1 -30 55 l0 55 32 0 c17 0 40 -7 50 -17z"/>
<path d="M2025 585 c-55 -54 -16 -145 62 -145 21 0 44 4 52 9 24 15 2 29 -37
24 -29 -4 -41 0 -56 16 l-19 21 73 0 73 0 -7 33 c-13 66 -93 91 -141 42z m93
-17 c21 -21 13 -28 -33 -28 -25 0 -45 4 -45 8 0 15 24 32 45 32 12 0 26 -5 33
-12z"/>
<path d="M2202 598 c-19 -19 -15 -66 7 -78 11 -5 38 -10 61 -10 34 0 41 -3 38
-17 -2 -14 -15 -19 -56 -21 -37 -2 -52 -7 -52 -18 0 -23 112 -20 133 4 37 41
14 75 -55 82 -38 3 -53 9 -53 20 0 11 14 16 58 18 42 2 57 7 57 17 0 19 -120
21 -138 3z"/>
<path d="M1420 400 c-13 -13 -13 -17 3 -33 15 -15 18 -15 23 -2 4 8 14 15 23
16 13 0 13 2 1 6 -8 3 -19 11 -25 17 -8 9 -14 8 -25 -4z"/>
<path d="M1570 408 c0 -10 -7 -18 -15 -18 -12 0 -12 -3 3 -18 16 -17 19 -17
39 -3 12 10 16 18 10 20 -7 2 -17 11 -24 20 -11 14 -12 14 -13 -1z"/>
<path d="M823 383 c70 -2 184 -2 255 0 70 1 12 3 -128 3 -140 0 -198 -2 -127
-3z"/>
<path d="M1843 383 c92 -2 242 -2 335 0 92 1 16 3 -168 3 -184 0 -260 -2 -167
-3z"/>
</g>
</svg>
